/* XPM */
static char *result[] = {
/* columns rows colors chars-per-pixel */
"32 32 12 1 ",
"  c black",
". c #001010",
"X c #001818",
"o c #002020",
"O c #003030",
"+ c #004040",
"@ c #006060",
"# c #008080",
"$ c #101010",
"% c #202020",
"& c gray19",
"* c gray25",
/* pixels */
"%%%&&&**&*****&*&&&%&&%&%%$%$$$$",
"%.........X%..X&XX..X&......... ",
"%.%%%%$%%%X%X%o$X%$$o$.$$ $$$ . ",
"&.$.XXXXX%X$o$X$o$o$o$X$X$....X ",
"&.$.$%$$$$o%X%o%o$Xoo$o%X$X$.   ",
"&.%XXXXXXXX%X$X$X$$$$ o$X$$ $$. ",
"&.$X$o$X$X%$%$o%ooo$XXo$oXoXXXX ",
"*X%$$$$X$o$ooOo$O$o$o$$$$%$$    ",
"&.XXXoo$%o$o$$ $$$O$o$OXXXoXooX ",
"*%%$$$%Xoo$O$O++OO+$O$o$$$$   . ",
"*.XoXX$o$%$%$+$$%$$$O$O$oXoXX . ",
"*X$$%X%O$oOO$+$+@@#@O$+oo$ $$ . ",
"&X$X$X$o$O @$+ $$$$$$ $$ $XXXXX ",
"*.$o$X$O$O$+%+$@@#@++O+Oo$o$ $  ",
"&X$X$o$o$O$O$@$#$$$$$$$$o$o$ooX ",
"*X%XXo$O +$+$#$@$@#@@+O$Ooo$o$X ",
"&X%$$ $o$+$++@$#$@$$$+$  $ $o X ",
"&XXoooOO$O%$$$$@$@$@$O$OoooXX$X ",
"*%$$$%$O$O+O+@ @ + #$O o$     . ",
"&.XXo$O$ $$$%+$@$@$@ +$o$oXXoX. ",
"%.$$$$o$OOOO$O$+ +$O +$O o$  $  ",
"&.XXo$X$o$   + O$+$+Oo$o X$oXXX ",
"%% $X$X$o$O+$O$+OO $$$$o$o$$X$X ",
"&X.$X$X$X$$O o$$$$ ooooX$o$$X X ",
"%X$%X$o$oXoO Ooooo$o $ o$XXXX$X ",
"%..X.$X$  $$$$   o$X X$X$   $$  ",
"&%$$$$XXXoXooooXXX$o$o o o...X. ",
"%...X$ $  $$ $$$$  o o$X$X $$ X ",
"$.$ . X..XoXoXXoXo$o$X . X$XX . ",
"%.$ X $ $ $ $$ $$o$X X X$.$$ $. ",
"$.. ..XXXXXX.XXXXX .XX . ....X. ",
"$                               "
};
