/* XPM */
static char *f208d937effd46e3e64deb6c2ea28a43EXROpgekmhPO75Bt[] = {
/* columns rows colors chars-per-pixel */
"32 32 12 1 ",
"  c #07000D",
". c #11080D",
"X c #161222",
"o c #231D25",
"O c #003B3B",
"+ c #302A30",
"@ c #403F3F",
"# c #404741",
"$ c #575D53",
"% c #018284",
"& c #19C3C5",
"* c #3FFBFD",
/* pixels */
"  . ..X.XXXXXX.XX..    .  ..X.  ",
" +###$$$$$####$$$$$$$$##$$####+ ",
" ++@@@@@@@@@@@@@@@@@@@@@@@@@@++.",
".@#o++oooXXXooooXXXXXoooXoo+++@.",
".+#+   .X   ..           .  @+@ ",
"X@#o .XX...XX  .X  .XX.XX.. #+@ ",
"X@#o oooooooo .ooo oooooooo.#@+.",
"X@#X o+o++++ .@++o.o+++o+oo #+@.",
".@#o.+++@+@#O#@@++O++@##@++.#++ ",
".@$o o+++++.&++++o%o++o+++o.#++.",
" @#X  ...XO%*&OX.O%%%&*%OX  #+@.",
" @#X.+#$$#+o&++$#$##+o&+$+o @@@X",
".@$X #@@@@#+%+@#@@@@#+%#@#+.#@+.",
".@$X.+@++@++O+@@@++@++O+@++ #++ ",
".+$X.o+++++o.o++oo++oo.o++o.$++ ",
"X@$X...  .X.  .X.  XX. .X.  #++.",
"X@#o.++o.o+@#$#+o +@##$$#+o #+@X",
"X+#o +#@.##@@@@$#.#@@@@@@#+ @+@X",
"X@#X +++X+@@++@@+X+@@++@+++.@@+X",
"X+#X o+o o++++++o o++oooo+o.#++X",
"X+#X  ..O%&*&&%O  .    .X.  #oo.",
"X+$X X+#$+o&+##$$$#+o o+$#+.#+oX",
"X+$o.+@@@#+ #@@@@@@#+ +@@@+ #+o.",
"X+#o.+@@@++%+@++@@+++O++++o $o+X",
"X+#o o++o+o&oo+oo+++o%o+ooo #o+.",
"X+#X  ..XO%%%O   X..O%OX..  #oo.",
"X+#+ XXo...XoXX...XX.XXoXoX.@oo.",
".+@o  ..    X.   .    XX.   @+o ",
".@++@@###$$$$$$#$ #$$$$##@@@++o.",
".@Xo+XoXXXXXXXXXX$ XXXXXXXXooX+.",
" Xo+ooXooXXXXXXXoX@ ooXXo++o++o ",
"     . ... ..   XX. .X  XX.. .  "
};
