/* XPM */
static char *_91b57fc4f8548a8d5274a8990b5400ddkrMo89LE0lASOpg[] = {
/* columns rows colors chars-per-pixel */
"32 32 114 2 ",
"   c None",
".  c black",
"X  c #070300",
"o  c #3DB000",
"O  c #603D00",
"+  c #608300",
"@  c #6D9C05",
"#  c #753500",
"$  c #7E7100",
"%  c #816900",
"&  c #836300",
"*  c #846000",
"=  c #865700",
"-  c #867B00",
";  c #868600",
":  c #869200",
">  c #8E4F00",
",  c #8E7303",
"<  c #925200",
"1  c #92B30B",
"2  c #935500",
"3  c #964900",
"4  c #9B2900",
"5  c #A4510B",
"6  c #A73D00",
"7  c #AB7811",
"8  c #AF3700",
"9  c #B07300",
"0  c #B0861F",
"q  c #B0B000",
"w  c #B0B03D",
"e  c #B47919",
"r  c #B81200",
"t  c #B82F00",
"y  c #B86D14",
"u  c #B88D00",
"i  c #C01100",
"p  c #C0540B",
"a  c #C06A00",
"s  c #C42D00",
"d  c #C44A07",
"f  c #C45B00",
"g  c #C6902D",
"h  c #C75400",
"j  c #CA3800",
"k  c #CA3F04",
"l  c #CA4E00",
"z  c #CA4F00",
"x  c #CB4800",
"c  c #CE5911",
"v  c #CF2F00",
"b  c #CF3700",
"n  c #CF4E0C",
"m  c #D15B00",
"M  c #D22A00",
"N  c #D22F00",
"B  c #D22F01",
"V  c #D23F06",
"C  c #D42600",
"Z  c #D62100",
"A  c #D62300",
"S  c #D62B00",
"D  c #D82200",
"F  c #D98354",
"G  c #DB1D00",
"H  c #DC0000",
"J  c #DC0D00",
"K  c #DC1800",
"L  c #DC2100",
"P  c #DC2B00",
"I  c #DC3500",
"U  c #DC4200",
"Y  c #DC4800",
"T  c #DC4E00",
"R  c #DC4E4E",
"E  c #DC6A00",
"W  c #DC6D00",
"Q  c #DC6E18",
"!  c #DC7500",
"~  c #DC9000",
"^  c #DCAF37",
"/  c #DCDC00",
"(  c #DCDC4E",
")  c #DF562B",
"_  c #E02D00",
"`  c #E03000",
"'  c #E32300",
"]  c #E38962",
"[  c #E51600",
"{  c #E52600",
"}  c #E53700",
"|  c #E82100",
" . c #E95E0B",
".. c #EC1801",
"X. c #EF8318",
"o. c #F0901C",
"O. c #F2510C",
"+. c #F25B00",
"@. c #F2803D",
"#. c #F30800",
"$. c #F60101",
"%. c #F60700",
"&. c #F6B52B",
"*. c #F80200",
"=. c #F9831C",
"-. c #FC1D00",
";. c #FE0100",
":. c red",
">. c #FF0700",
",. c #FF0B00",
"<. c #FF1F00",
"1. c #FF6000",
"2. c #FFFF60",
"3. c #FFFFB0",
/* pixels */
"                                                                ",
"                                                                ",
"                                                                ",
"                                                                ",
"                                                                ",
"                                                                ",
"                            . . . . . .                         ",
"                    . . . . ( ( &.&.g ~ . . .                   ",
"                . . q 0 q g ^ @.>.;.-.n 0 0 q . .               ",
"            . . 2.( 0 h e N `  .| [ ..:.:.B q o ; . .           ",
"          X g &.3.( 0 6 a y ~ g 1.p G &.3.o.C ; 9 9 0 .         ",
"        . > 1.g ] &.w w w ~ d U :.Y I S  .g Z j T T g 0 .       ",
"      . 3 i <.1.R 0 &.K 1 K +.S L P 0 ~ v T 0 L J T ] 7 m .     ",
"      . 2 $.T T H T , o % g &.&.V W 0 q ; q ~ T { c 3.F l .     ",
"    . c c ] 0 T 5 s < @ 0 w ( 3.&.K P q o ; ~ 0 E ) &.R r = .   ",
"    . X._ 3.w q + x 0 K t A g &.&.~ k b M N P K ` ,.n 0 z 3 .   ",
"    . &.o.` n 0 9 9 0 0 u M v g ~ 3 O 4 # 3 3 n =.0 =.0 9 T .   ",
"    . = ~ &.Z *.' 9 g w  .f d 1.T 1.. . . . . = O = O 3 O = .   ",
"      . ~ ! } %.:.} ] 3.o.M ~ - H T ~ .       . . . . . . .     ",
"      . = ~ ~ T T :.n &.o.* : - T 1.T 0 .                       ",
"        . 3 T ~ T ! Z K K & $ ~ 0 0 ~ 0 1..                     ",
"          . O = ~ ~ 0 q ; 8 N D #. .n f q ; .                   ",
"            . . O = ~ q q ; u n O.@.Q 0 w &.u .                 ",
"                . . O 3 = = / g &.( &.w 3 = O .                 ",
"                    . . . . O 3 3 = 3 = . . .                   ",
"                          . . . . . . .                         ",
"                                                                ",
"                                                                ",
"                                                                ",
"                                                                ",
"                                                                ",
"                                                                "
};
