/* XPM */
static char *_2874ba2e1a7463dc4d78074161d9963vMjEe1IIyXt2Q2qn[] = {
/* columns rows colors chars-per-pixel */
"32 32 36 1 ",
"  c None",
". c #590C02",
"X c #606060",
"o c gray44",
"O c #808080",
"+ c #A0A0A0",
"@ c #C0C0C0",
"# c #CB8A0B",
"$ c #D0D0D0",
"% c black",
"& c #060000",
"* c #200000",
"= c #2D2B35",
"- c #2F2F2F",
"; c #300000",
": c gray21",
"> c #400000",
", c #4B4B4B",
"< c #590C02",
"1 c gray35",
"2 c #5A5A5A",
"3 c #600000",
"4 c #676767",
"5 c gray43",
"6 c gray46",
"7 c #800000",
"8 c #A00000",
"9 c #AA3D02",
"0 c #BAB8A9",
"q c #BE5C05",
"w c #C00000",
"e c #CB8A0B",
"r c red",
"t c #FF4000",
"y c #FF8000",
"u c #FFC000",
/* pixels */
"           %%     %%            ",
"  <       %14%%O%%61%           ",
"< .e      %6:66%06-,%           ",
".<q#     X%6-%-0%-:,%           ",
".9e<     %%%0%6-4:,%%%       <  ",
"9q9.   %%>7%10-%:1,*73%%     .e ",
"9eq9< %773*1-6%%%,-,;3>7%    .# ",
"<eeq.%w87>1:%:%%%1%,:;377%  <e# ",
"qeeq%8w77-41404,-6:14:;333% ee< ",
"<qq<3733%%---:-%11:--%%;337%e9< ",
"%<2%33>%%%%%%-,-6:%%%%%%;33%20% ",
"%2=73>%%;7t7%%40:%%73tr%%;37=2% ",
"%50533%77r7w&%%,%%%3387t%;3505% ",
"%273;%%7y73737%%%>>&37rr%%;372% ",
"%053;%3r773>77%y73&>7yr7%%;350% ",
"%5>>;%rt73>%>337&>%78r73>%;>>5% ",
"%2>7>%&7w3&&>37yw7>>77y77%>7>2% ",
"%=37>%w7>>%>73&773&7w7rr7%>73=% ",
" %77*%w>>%7ww%%%%>%%w37t&%>83%  ",
" %37*%7w&%3>7%%%%%&%%73&&%>8>%  ",
" %33;%%3>&%>37%%%%&%r77%7%>7>%  ",
" %33;%&%%>>7333%%%>7&33>7%>8>%  ",
" %73*%&%&3887%&3%&7r7w7%&%>73%  ",
" %37;%%%&>7&3>%&&>&r&7>&>%;83%$@",
" %77*%%%%%3%73>%>7r73>&%>%>87%$@",
" %87*%%%%%%%7ww>w7yw>&%&3%>78%o+",
" %33*%%&%%%%&&7>7&7>w%&>>%>w7%$$",
" %33;%%%%%&7>7rtu&37>%&%&%>83%$$",
" %37*%%%%%%%%%%%%%%%%%%%%%>73%++",
" %7877778w8ww8w88ww8887778773%  ",
" %8733>3337733>>33777>;>>>3>3%  ",
" %%%%%%%%%%%%%%%%%%%%%%%%%%%%%  "
};
