/* XPM */
static char *_702fc186d964f44fb0615c474168c42NNeEH10kuQCu7jWq[] = {
/* columns rows colors chars-per-pixel */
"32 32 131 2 ",
"   c None",
".  c black",
"X  c #000002",
"o  c #010002",
"O  c #020207",
"+  c #04030A",
"@  c #080713",
"#  c #17091E",
"$  c #101010",
"%  c #220212",
"&  c #250212",
"*  c #270315",
"=  c #280315",
"-  c #290316",
";  c #2A0216",
":  c #220519",
">  c #27071E",
",  c #2C0318",
"<  c #2D0318",
"1  c #2F0319",
"2  c #2F0419",
"3  c #2F041A",
"4  c #30041A",
"5  c #35041C",
"6  c #34051C",
"7  c #36051D",
"8  c #38051F",
"9  c #110E25",
"0  c #100F27",
"q  c #12112B",
"w  c #12112D",
"e  c #11112E",
"r  c #18112F",
"t  c #151434",
"y  c #181638",
"u  c #181739",
"i  c #19173B",
"p  c #19183C",
"a  c #1B193D",
"s  c #1B193F",
"d  c #1C193F",
"f  c #3D0621",
"g  c #3F0723",
"h  c #3F0624",
"j  c #380825",
"k  c #261132",
"l  c #1D2239",
"z  c #410625",
"x  c #420724",
"c  c #420725",
"v  c #440826",
"b  c #460827",
"n  c #4D082A",
"m  c #4D092B",
"M  c #4E092B",
"N  c #4F0A2C",
"B  c #530A2F",
"V  c #540A2F",
"C  c #550B30",
"Z  c #590A32",
"A  c #58103E",
"S  c #6E002C",
"D  c #670C38",
"F  c #670C39",
"G  c #6F0D3D",
"H  c #6C0F3F",
"J  c #700E3E",
"K  c #1D1B42",
"L  c #1D1B43",
"P  c #1E1A42",
"I  c #1E1B43",
"U  c #1D1B45",
"Y  c #1E1C45",
"T  c #1E1C47",
"R  c #1F1D47",
"E  c #1F1D48",
"W  c #1F1E49",
"Q  c #201C47",
"!  c #201D48",
"~  c #201E49",
"^  c #201E4A",
"/  c #201F4A",
"(  c #22204D",
")  c #22214F",
"_  c #262E4A",
"`  c #222252",
"'  c #262153",
"]  c #232254",
"[  c #252254",
"{  c #242355",
"}  c #242456",
"|  c #252456",
" . c #262457",
".. c #27255A",
"X. c #28255A",
"o. c #28265C",
"O. c #28275D",
"+. c #29275E",
"@. c #292760",
"#. c #2A2860",
"$. c #2A2961",
"%. c #2A2862",
"&. c #2A2962",
"*. c #2B2962",
"=. c #2B2A62",
"-. c #2D2B6B",
";. c #2D2C68",
":. c #2C2C6B",
">. c #302E6E",
",. c #302E6F",
"<. c #302F6F",
"1. c #312F70",
"2. c #312F71",
"3. c #323072",
"4. c #323074",
"5. c #333175",
"6. c #6D0F40",
"7. c #611245",
"8. c #E054EC",
"9. c #7A819E",
"0. c #8F98B9",
"q. c #C19CA8",
"w. c #99A3C5",
"e. c #B3B8D0",
"r. c #B8BDD4",
"t. c #E4BECA",
"y. c #C7CBDD",
"u. c #ECCCD7",
"i. c #EDCDD7",
"p. c #F1D1DB",
"a. c #FBDFE5",
/* pixels */
"                              . . . .                           ",
"                            . $ l $ l .                         ",
"                          . $ l $ l $ $ .                       ",
"                        . l t.p.t.$ $ l .                       ",
"                        . l S p.S $ l $                         ",
"                        . $ t.p.t.t._ . .                       ",
"                      . ;.0 a.p.p.t.0 s =..                     ",
"                        . =.0 t.t.s s =.0                       ",
"                        0 d 0.0.9.s =.0 d . .                   ",
"                      . 4.4.w.r.y.( 1.] { @.{ .                 ",
"                    + 4. .4.( e. .;.8.0 d L @.L .               ",
"                  + r  .r -.9.e.y.=.` d 0 0 L ! .               ",
"          . . @ + r Q L . X.1.e.@.=.! 0 & . 0 L L O             ",
"        . p.t.=. .=.L . j T 0.e.y. .y 0 & & 0 L ...             ",
"        . a.t.! r L . 2 m s o.0.o.U 4.0 < & 0 L ' s .           ",
"        . t.i.. . ; g m 0 y L s T y  .! 0 b 4 ' q.p.s .         ",
"        . . 0 6 6 g V J ( s s 0 w s y  .0 m c 0 i.t.0 .         ",
"      . 4.0 g b 6 B 6.{ 4.s 0 0 s ( y 0 0 m b C 0 t..           ",
"    . 4.0 g V c V H { 3.T s 0 # s 4. .0 ; D C b C 0 0 .         ",
"    . s 0 g C g C 7.3.3.o.0 # * t ,.,.0 < D J c C 0 s .         ",
"  . s 0 g 4 g C J A o.3.L 0 % c 0 o.,.0 8 H J C 4 0 0 4..       ",
"  . s . 4 4 C J J Z k o.! w % h % s @.0 6 C J C 4 6 0 4..       ",
"    .   . . C J J N > E E q 0 < % s T 0 ; . C . . 6 0 s .       ",
"            . C g . 2 : 0 s 0 % % 0 s 0 .   .     . 0 0 .       ",
"              . .   . . s s 0 % . . 0 0 . . . . . . . 0 0 . .   ",
"                      . s 3.0 . . . y q . . . . . . . 0 0 . . . ",
"                        . 3.s . . . s 3.. . . . . . . 0 . . .   ",
"                        . 0 s . . . s 3.0 . . . . . . 0 .       ",
"                          . . .     . s 0 . . . . . . .         ",
"                                    . 0 .                       ",
"                                      .                         ",
"                                                                "
};
